<svg xmlns="http://www.w3.org/2000/svg" width="468" height="514" viewBox="0 0 468 514" version="1.1"><path d="M 181.110 54.396 C 172.135 59.370, 175.600 70.886, 186.513 72.347 C 197.118 73.767, 203.192 81.734, 205.307 97 C 205.760 100.270, 205.465 100.725, 200.816 103.929 C 185.003 114.828, 176.060 133.372, 176.017 155.357 C 176.002 163.417, 176.157 164.146, 177.750 163.458 C 214.331 147.656, 255.669 147.656, 292.250 163.458 C 293.843 164.146, 293.998 163.417, 293.983 155.357 C 293.940 133.372, 284.997 114.828, 269.184 103.929 C 264.535 100.725, 264.240 100.270, 264.693 97 C 266.808 81.734, 272.882 73.767, 283.487 72.347 C 294.859 70.825, 297.949 58.121, 287.955 53.981 C 273.412 47.957, 251.338 66.219, 246.840 87.996 C 245.055 96.637, 224.949 96.641, 223.154 88 C 218.489 65.543, 194.947 46.726, 181.110 54.396 M 211.500 173.981 C 141.743 188.026, 84.448 262.018, 78.010 346.373 C 76.574 365.183, 78.184 368, 90.369 368 C 141.371 368, 208.233 306.286, 231.511 237.724 C 235.129 227.069, 234.872 227.070, 238.472 237.676 C 261.783 306.332, 328.577 368, 379.631 368 C 391.747 368, 393.427 365.127, 392.014 346.824 C 383.732 239.519, 297.253 156.714, 211.500 173.981 M 228.701 289.986 C 219.202 306.193, 208.576 319.567, 191.824 336.404 C 169.022 359.321, 170 387.598, 194.398 410.774 C 247.004 460.744, 329.249 387.735, 278.176 336.404 C 261.424 319.567, 250.798 306.193, 241.299 289.986 C 238.109 284.545, 235.275 280.094, 235 280.094 C 234.725 280.094, 231.891 284.545, 228.701 289.986 M 151.983 414.285 C 128.678 426.829, 123.718 433.786, 133.299 440.497 C 137.980 443.776, 154.880 437.290, 163.477 428.916 C 170.257 422.312, 160.394 409.758, 151.983 414.285 M 311.500 413.735 C 299.726 416.562, 302.447 427.219, 317.154 435.875 C 332.336 444.810, 343.938 442.218, 340.426 430.677 C 338.619 424.739, 317.409 412.316, 311.500 413.735 M 186.500 440.535 C 174.043 446.720, 168.054 472.789, 178.489 475.408 C 187.242 477.605, 203.525 452.455, 198.920 443.850 C 196.810 439.907, 190.927 438.337, 186.500 440.535 M 275.476 440.396 C 264.017 445.388, 278.553 477.720, 291.171 475.308 C 300.146 473.592, 300.560 466.180, 292.459 452.261 C 285.161 439.722, 282.035 437.538, 275.476 440.396 M 229.786 449.553 C 223.881 452.758, 222.749 478.203, 228.266 483.720 C 239.047 494.501, 249.977 474.554, 244.077 454.863 C 242.247 448.754, 235.724 446.330, 229.786 449.553" stroke="none" fill="#040404" fill-rule="evenodd"/></svg>