<svg xmlns="http://www.w3.org/2000/svg" width="293" height="289" viewBox="0 0 293 289" version="1.1"><path d="M 142.813 39.683 C 143.534 39.972, 144.397 39.936, 144.729 39.604 C 145.061 39.272, 144.471 39.036, 143.417 39.079 C 142.252 39.127, 142.015 39.364, 142.813 39.683 M 152.750 39.662 C 153.438 39.940, 154.563 39.940, 155.250 39.662 C 155.938 39.385, 155.375 39.158, 154 39.158 C 152.625 39.158, 152.063 39.385, 152.750 39.662 M 197.813 39.683 C 198.534 39.972, 199.397 39.936, 199.729 39.604 C 200.061 39.272, 199.471 39.036, 198.417 39.079 C 197.252 39.127, 197.015 39.364, 197.813 39.683 M 208.500 39.713 C 211.758 40.497, 212.674 41.991, 209.950 42.079 C 208.602 42.122, 208.077 42.390, 208.783 42.673 C 209.489 42.957, 210.777 42.916, 211.646 42.582 C 213.885 41.723, 211.480 38.960, 208.628 39.116 C 206.609 39.226, 206.603 39.257, 208.500 39.713 M 140.257 41 C 140.482 41.825, 141.528 42.605, 142.583 42.732 C 143.930 42.896, 144.054 42.777, 143 42.332 C 142.175 41.985, 141.128 41.205, 140.674 40.600 C 140.143 39.893, 139.994 40.035, 140.257 41 M 161.944 43.037 C 166.470 45.531, 167.819 45.865, 169.944 45.013 L 172.500 43.988 169.844 44.489 C 168.115 44.816, 165.671 44.124, 162.844 42.507 C 160.455 41.142, 158.050 40.027, 157.500 40.030 C 156.950 40.033, 158.950 41.386, 161.944 43.037 M 190.156 42.507 C 187.329 44.124, 184.885 44.816, 183.156 44.489 L 180.500 43.988 183.056 45.013 C 185.181 45.865, 186.530 45.531, 191.056 43.037 C 194.050 41.386, 196.050 40.033, 195.500 40.030 C 194.950 40.027, 192.545 41.142, 190.156 42.507 M 147.250 41.689 C 148.213 41.941, 149.787 41.941, 150.750 41.689 C 151.713 41.438, 150.925 41.232, 149 41.232 C 147.075 41.232, 146.287 41.438, 147.250 41.689 M 201.762 41.707 C 203.006 41.946, 204.806 41.937, 205.762 41.687 C 206.718 41.437, 205.700 41.241, 203.500 41.252 C 201.300 41.263, 200.518 41.468, 201.762 41.707 M 192.750 44.068 C 190.688 45.157, 189 46.271, 189 46.544 C 189 46.817, 190.688 46.194, 192.750 45.159 C 194.813 44.124, 197.175 43.026, 198 42.718 C 199.333 42.220, 199.333 42.154, 198 42.123 C 197.175 42.104, 194.813 42.979, 192.750 44.068 M 175.269 43.693 C 176.242 43.947, 177.592 43.930, 178.269 43.656 C 178.946 43.382, 178.150 43.175, 176.500 43.195 C 174.850 43.215, 174.296 43.439, 175.269 43.693 M 160 44.430 C 160 44.705, 160.900 45.411, 162 46 C 163.100 46.589, 164 46.845, 164 46.570 C 164 46.295, 163.100 45.589, 162 45 C 160.900 44.411, 160 44.155, 160 44.430 M 160.924 50.750 L 158.500 53.500 161.250 51.076 C 163.820 48.810, 164.459 48, 163.674 48 C 163.495 48, 162.258 49.237, 160.924 50.750 M 191.616 50.954 C 192.780 52.354, 194.229 54.400, 194.836 55.500 C 195.443 56.600, 195.953 56.931, 195.970 56.235 C 195.986 55.540, 194.537 53.494, 192.750 51.689 C 190.963 49.884, 190.452 49.553, 191.616 50.954 M 157.022 55.960 C 156.445 57.037, 155.753 60.075, 155.485 62.710 L 154.997 67.500 156.275 62 C 156.978 58.975, 157.905 55.938, 158.336 55.250 C 158.766 54.563, 158.882 54, 158.594 54 C 158.306 54, 157.598 54.882, 157.022 55.960 M 196.158 60 C 196.158 61.375, 196.385 61.938, 196.662 61.250 C 196.940 60.563, 196.940 59.438, 196.662 58.750 C 196.385 58.063, 196.158 58.625, 196.158 60 M 169.223 66.626 C 170.728 67.072, 170.987 68.929, 171.267 81.318 L 171.588 95.500 171.544 81.012 C 171.502 67.276, 171.396 66.514, 169.500 66.320 C 167.996 66.166, 167.927 66.242, 169.223 66.626 M 181.438 67.300 C 181.164 68.016, 181.080 74.653, 181.251 82.050 L 181.563 95.500 181.782 81.333 C 181.939 71.106, 182.348 67.026, 183.250 66.662 C 184.229 66.267, 184.222 66.141, 183.219 66.079 C 182.514 66.036, 181.713 66.585, 181.438 67.300 M 188.789 68.600 C 193.927 70.846, 196.381 70.814, 196.652 68.500 C 196.830 66.973, 196.763 66.913, 196.369 68.250 C 195.749 70.354, 196.195 70.333, 191 68.500 C 185.694 66.628, 184.408 66.686, 188.789 68.600 M 156.015 68.691 C 156.007 69.346, 156.398 70.128, 156.885 70.429 C 157.844 71.022, 164.368 69.035, 163.690 68.356 C 163.463 68.130, 162.015 68.424, 160.472 69.011 C 158.333 69.824, 157.471 69.771, 156.848 68.789 C 156.269 67.875, 156.026 67.847, 156.015 68.691 M 167.500 70 C 167.840 70.550, 168.316 71, 168.559 71 C 168.802 71, 169 70.550, 169 70 C 169 69.450, 168.523 69, 167.941 69 C 167.359 69, 167.160 69.450, 167.500 70 M 150.197 75.964 C 145.689 78.144, 142 80.175, 142 80.477 C 142 80.778, 145.037 79.530, 148.750 77.703 C 152.463 75.876, 156.625 73.876, 158 73.258 C 159.375 72.641, 160.026 72.105, 159.447 72.068 C 158.868 72.030, 154.706 73.784, 150.197 75.964 M 194 73 C 194.825 73.533, 195.950 73.969, 196.500 73.969 C 197.050 73.969, 196.825 73.533, 196 73 C 195.175 72.467, 194.050 72.031, 193.500 72.031 C 192.950 72.031, 193.175 72.467, 194 73 M 183.310 78.500 C 183.315 81.800, 183.502 83.029, 183.725 81.232 C 183.947 79.435, 183.943 76.735, 183.715 75.232 C 183.486 73.729, 183.304 75.200, 183.310 78.500 M 198.083 74.365 C 198.313 74.565, 199.625 75.265, 201 75.920 C 203.357 77.042, 203.389 77.022, 201.559 75.555 C 199.966 74.279, 196.711 73.164, 198.083 74.365 M 204 77.393 C 204 77.609, 204.698 78.054, 205.552 78.382 C 206.442 78.723, 206.843 78.555, 206.493 77.989 C 205.906 77.038, 204 76.583, 204 77.393 M 169.079 79.583 C 169.127 80.748, 169.364 80.985, 169.683 80.188 C 169.972 79.466, 169.936 78.603, 169.604 78.271 C 169.272 77.939, 169.036 78.529, 169.079 79.583 M 210 80.219 C 210 80.466, 212.494 82.385, 215.543 84.485 C 218.591 86.584, 222.688 90.147, 224.648 92.401 C 227.353 95.514, 227.692 95.724, 226.056 93.277 C 223.394 89.294, 210 78.401, 210 80.219 M 131.831 87.894 C 128.899 90.586, 125.693 94.299, 124.706 96.144 C 123.162 99.034, 123.152 99.153, 124.638 97 C 125.587 95.625, 129.054 91.912, 132.342 88.750 C 139.627 81.744, 139.238 81.093, 131.831 87.894 M 168.300 94 C 168.300 97.025, 168.487 98.263, 168.716 96.750 C 168.945 95.237, 168.945 92.763, 168.716 91.250 C 168.487 89.737, 168.300 90.975, 168.300 94 M 184.272 95 C 184.272 97.475, 184.467 98.487, 184.706 97.250 C 184.944 96.013, 184.944 93.987, 184.706 92.750 C 184.467 91.513, 184.272 92.525, 184.272 95 M 170.252 99.500 C 170.263 101.700, 170.468 102.482, 170.707 101.238 C 170.946 99.994, 170.937 98.194, 170.687 97.238 C 170.437 96.282, 170.241 97.300, 170.252 99.500 M 229.824 100.954 C 230.746 103.128, 231.640 104.509, 231.811 104.022 C 232.126 103.122, 229.282 97, 228.549 97 C 228.329 97, 228.903 98.779, 229.824 100.954 M 182.100 100.583 C 182.155 102.188, 182.582 104.625, 183.049 106 C 183.622 107.686, 183.711 106.872, 183.321 103.500 C 182.672 97.875, 181.948 96.147, 182.100 100.583 M 121.624 101.539 C 120.659 104.053, 120.943 104.702, 122.122 102.675 C 122.706 101.671, 122.973 100.639, 122.715 100.382 C 122.458 100.124, 121.966 100.645, 121.624 101.539 M 165.871 107.740 C 164.975 111.458, 164.385 114.661, 164.561 114.857 C 165.134 115.497, 168.154 104.035, 167.822 102.485 C 167.645 101.657, 166.767 104.022, 165.871 107.740 M 185.070 103.083 C 185.109 104.412, 185.548 106.400, 186.047 107.500 C 186.678 108.894, 186.768 108.288, 186.344 105.500 C 185.637 100.857, 184.969 99.589, 185.070 103.083 M 55.750 103.662 C 56.438 103.940, 57.563 103.940, 58.250 103.662 C 58.938 103.385, 58.375 103.158, 57 103.158 C 55.625 103.158, 55.063 103.385, 55.750 103.662 M 51.494 106.006 C 50.496 107.110, 49.864 108.190, 50.089 108.408 C 50.315 108.626, 51.309 107.723, 52.297 106.402 C 54.479 103.484, 53.994 103.245, 51.494 106.006 M 169.079 105.583 C 169.127 106.748, 169.364 106.985, 169.683 106.188 C 169.972 105.466, 169.936 104.603, 169.604 104.271 C 169.272 103.939, 169.036 104.529, 169.079 105.583 M 120.195 107.500 C 120.215 109.150, 120.439 109.704, 120.693 108.731 C 120.947 107.758, 120.930 106.408, 120.656 105.731 C 120.382 105.054, 120.175 105.850, 120.195 107.500 M 232.300 111 C 232.300 114.025, 232.487 115.263, 232.716 113.750 C 232.945 112.237, 232.945 109.763, 232.716 108.250 C 232.487 106.737, 232.300 107.975, 232.300 111 M 168.079 109.583 C 168.127 110.748, 168.364 110.985, 168.683 110.188 C 168.972 109.466, 168.936 108.603, 168.604 108.271 C 168.272 107.939, 168.036 108.529, 168.079 109.583 M 184.079 110.583 C 184.127 111.748, 184.364 111.985, 184.683 111.188 C 184.972 110.466, 184.936 109.603, 184.604 109.271 C 184.272 108.939, 184.036 109.529, 184.079 110.583 M 120.195 113.500 C 120.215 115.150, 120.439 115.704, 120.693 114.731 C 120.947 113.758, 120.930 112.408, 120.656 111.731 C 120.382 111.054, 120.175 111.850, 120.195 113.500 M 165.653 117.115 C 163.439 123.347, 155.521 131.746, 151.007 132.649 C 146.801 133.490, 146.563 134.351, 149.332 138.713 C 152.756 144.108, 156.139 147.213, 162.162 150.492 C 166.842 153.039, 168.422 153.357, 176.462 153.370 C 184.268 153.382, 186.181 153.030, 190.500 150.781 C 193.250 149.349, 196.564 147.172, 197.864 145.943 C 200.874 143.099, 206.079 134.936, 205.489 133.983 C 205.243 133.584, 203.761 133.002, 202.196 132.689 C 197.491 131.748, 189.749 123.984, 187.625 118.077 C 186.601 115.231, 185.566 113.101, 185.323 113.343 C 185.081 113.586, 185.584 115.462, 186.441 117.514 C 187.299 119.566, 188 121.414, 188 121.622 C 188 121.830, 182.825 122, 176.500 122 C 170.175 122, 165 121.830, 165 121.622 C 165 121.414, 165.699 119.572, 166.552 117.529 C 167.406 115.486, 167.965 113.396, 167.795 112.885 C 167.625 112.374, 166.661 114.278, 165.653 117.115 M 188.031 114.500 C 188.031 115.050, 188.467 116.175, 189 117 C 189.533 117.825, 189.969 118.050, 189.969 117.500 C 189.969 116.950, 189.533 115.825, 189 115 C 188.467 114.175, 188.031 113.950, 188.031 114.500 M 163 116.733 C 163 117.319, 161.383 120.202, 159.406 123.139 C 157.086 126.587, 156.592 127.775, 158.013 126.490 C 160.556 124.189, 164.411 117.077, 163.570 116.236 C 163.256 115.923, 163 116.146, 163 116.733 M 121 117.642 C 121 118.179, 121.700 119.491, 122.555 120.559 C 124.022 122.389, 124.042 122.357, 122.920 120 C 121.462 116.939, 121 116.372, 121 117.642 M 229.736 120.256 L 227.971 123.500 229.986 121.139 C 231.700 119.130, 232.616 116.984, 231.750 117.006 C 231.613 117.010, 230.706 118.472, 229.736 120.256 M 190.015 119.583 C 190.023 120.088, 191.641 122.300, 193.610 124.500 L 197.189 128.500 193.902 124 C 192.094 121.525, 190.476 119.313, 190.307 119.083 C 190.138 118.854, 190.007 119.079, 190.015 119.583 M 126 125.500 C 127.292 126.875, 128.574 128, 128.849 128 C 129.124 128, 128.292 126.875, 127 125.500 C 125.708 124.125, 124.426 123, 124.151 123 C 123.876 123, 124.708 124.125, 126 125.500 M 224.296 126.547 C 222.534 127.936, 219.384 129.700, 217.296 130.466 C 215.208 131.232, 214.145 131.891, 214.934 131.930 C 217.077 132.035, 224.482 128.230, 226.523 125.975 C 228.939 123.305, 228.153 123.507, 224.296 126.547 M 130.537 129.059 C 131.117 129.998, 137.963 132.370, 138.512 131.822 C 138.719 131.614, 136.899 130.729, 134.467 129.854 C 132.035 128.980, 130.266 128.622, 130.537 129.059 M 153.595 128.750 C 153.189 129.162, 151.426 130.067, 149.678 130.759 L 146.500 132.018 149.500 131.443 C 151.998 130.965, 156.631 128, 154.881 128 C 154.580 128, 154.001 128.338, 153.595 128.750 M 116 192 C 116 226.833, 116.219 255.115, 116.486 254.848 C 117.149 254.184, 117.193 129.859, 116.529 129.196 C 116.238 128.905, 116 157.167, 116 192 M 203.500 131.465 C 205.150 132.260, 208.075 132.874, 210 132.830 L 213.500 132.750 209.500 132.058 C 207.300 131.677, 204.375 131.063, 203 130.693 C 200.997 130.154, 201.096 130.307, 203.500 131.465 M 141.250 132.689 C 142.213 132.941, 143.787 132.941, 144.750 132.689 C 145.713 132.438, 144.925 132.232, 143 132.232 C 141.075 132.232, 140.287 132.438, 141.250 132.689 M 143.839 149.781 C 138.369 154.999, 137.793 158, 142.260 158 C 145.298 158, 153.326 149.933, 152.834 147.376 C 152.170 143.928, 149.120 144.744, 143.839 149.781 M 200.055 146.896 C 199.234 148.432, 199.656 149.452, 202.270 152.253 C 207.381 157.727, 210.262 159.260, 212.443 157.665 C 214.755 155.975, 213.661 153.733, 208.050 148.664 C 203.499 144.552, 201.541 144.120, 200.055 146.896 M 136 160.500 C 138.987 163.525, 141.657 166, 141.932 166 C 142.207 166, 139.987 163.525, 137 160.500 C 134.013 157.475, 131.343 155, 131.068 155 C 130.793 155, 133.013 157.475, 136 160.500 M 173.607 157.582 C 172.492 160.487, 172.983 169.594, 174.355 171.471 C 175.185 172.606, 176.348 173.080, 177.355 172.694 C 178.693 172.181, 179 170.562, 179 164.031 C 179 156.227, 178.932 156, 176.607 156 C 175.291 156, 173.941 156.712, 173.607 157.582 M 222.872 160.750 C 221.629 162.336, 221.664 162.371, 223.250 161.128 C 224.916 159.821, 225.445 159, 224.622 159 C 224.415 159, 223.627 159.787, 222.872 160.750 M 216.872 165.750 C 215.629 167.336, 215.664 167.371, 217.250 166.128 C 218.916 164.821, 219.445 164, 218.622 164 C 218.415 164, 217.627 164.787, 216.872 165.750 M 143 166.378 C 143 166.585, 143.787 167.373, 144.750 168.128 C 146.336 169.371, 146.371 169.336, 145.128 167.750 C 143.821 166.084, 143 165.555, 143 166.378 M 161.236 209.667 C 161.055 235.085, 160.708 242.951, 159.750 243.338 C 158.771 243.733, 158.778 243.859, 159.781 243.921 C 160.486 243.964, 161.280 243.434, 161.546 242.742 C 161.811 242.050, 161.903 226.862, 161.750 208.992 L 161.471 176.500 161.236 209.667 M 175.667 179.667 C 174.742 180.591, 174.823 242.773, 175.750 243.346 C 176.162 243.602, 176.375 229.480, 176.223 211.964 L 175.946 180.118 180.223 179.734 L 184.500 179.349 180.417 179.175 C 178.171 179.079, 176.033 179.300, 175.667 179.667 M 155.813 244.683 C 156.534 244.972, 157.397 244.936, 157.729 244.604 C 158.061 244.272, 157.471 244.036, 156.417 244.079 C 155.252 244.127, 155.015 244.364, 155.813 244.683" stroke="none" fill="#d0da35" fill-rule="evenodd"/><path d="M 143.250 39.652 C 138.707 40.635, 141.186 41.734, 147.750 41.648 C 154.808 41.556, 164 44.618, 164 47.062 C 164 47.708, 162.675 49.746, 161.055 51.591 C 156.891 56.332, 154.671 65.358, 156.830 68.760 C 157.457 69.747, 158.909 69.579, 163.536 67.988 C 166.784 66.870, 170.079 66.200, 170.857 66.499 C 172.031 66.949, 172.177 69.970, 171.716 84.271 C 171.261 98.378, 170.720 103.040, 168.727 110 C 167.388 114.675, 165.954 119.287, 165.540 120.250 C 164.846 121.860, 165.723 122, 176.500 122 C 187.276 122, 188.154 121.860, 187.461 120.250 C 187.047 119.287, 185.609 114.900, 184.265 110.500 C 182.214 103.784, 181.734 99.675, 181.272 84.895 C 180.905 73.145, 181.069 67.075, 181.767 66.644 C 182.343 66.288, 185.648 66.880, 189.114 67.958 C 192.579 69.037, 195.658 69.673, 195.957 69.373 C 196.256 69.072, 196.444 66.478, 196.377 63.608 C 196.244 58.010, 194.475 53.645, 191.102 50.593 C 188.022 47.805, 188.495 46.308, 193.250 43.793 C 196.597 42.024, 199.052 41.563, 204.804 41.627 C 210.130 41.685, 211.808 41.408, 211.004 40.604 C 210.397 39.997, 207.110 39.511, 203.700 39.525 C 198.633 39.546, 196.391 40.148, 191.430 42.819 C 186.255 45.605, 184.954 45.933, 182.615 45.044 C 181.105 44.470, 178.353 44, 176.500 44 C 174.647 44, 171.895 44.470, 170.385 45.044 C 168.064 45.926, 166.767 45.622, 161.982 43.071 C 156.394 40.093, 148.161 38.590, 143.250 39.652 M 160.216 72.519 C 141.997 79.522, 127.855 90.147, 123.119 100.391 C 117.197 113.199, 122.744 126.097, 136.079 130.526 C 149.197 134.883, 159.905 127.720, 165.043 111.152 C 168.495 100.021, 170.235 71.139, 167.500 70.381 C 166.950 70.228, 163.672 71.190, 160.216 72.519 M 184.284 84.102 C 185.228 106.711, 188.453 118.453, 195.712 125.712 C 201.585 131.585, 209.064 133.300, 216.837 130.558 C 234.928 124.175, 237.228 104.715, 221.670 89.674 C 218.726 86.828, 213.802 83.001, 210.728 81.169 C 204.585 77.510, 191.165 71.530, 186.591 70.413 L 183.682 69.703 184.284 84.102 M 52.073 106.635 C 50.025 109.237, 50 110.046, 50 172.524 C 50 231.317, 50.123 235.923, 51.750 237.834 C 52.941 239.234, 60.722 242.137, 76.125 246.929 C 88.570 250.800, 99.482 254.248, 100.375 254.591 C 101.865 255.162, 102 249.494, 102 186.308 L 102 117.403 80.250 110.664 C 68.287 106.958, 57.520 103.942, 56.323 103.963 C 55.125 103.983, 53.212 105.186, 52.073 106.635 M 117.058 193.317 C 117.003 251.740, 117.096 255.106, 118.750 254.609 C 119.713 254.319, 127.250 252.238, 135.500 249.984 C 143.750 247.730, 152.863 245.204, 155.750 244.372 L 161 242.858 160.939 209.679 L 160.879 176.500 153.120 172.783 C 140.099 166.545, 126.340 151.801, 119.507 136.763 L 117.115 131.500 117.058 193.317 M 222.500 161.221 C 212.486 171.371, 198.095 178.081, 183.190 179.550 L 175.972 180.261 176.236 211.858 L 176.500 243.455 198.386 250.373 C 222.007 257.839, 224.157 258.037, 226.714 252.983 C 227.669 251.097, 227.974 239.270, 227.985 203.750 C 227.993 178.037, 227.662 157.037, 227.250 157.083 C 226.838 157.129, 224.700 158.990, 222.500 161.221" stroke="none" fill="#0e0d0e" fill-rule="evenodd"/></svg>