<svg xmlns="http://www.w3.org/2000/svg" width="298" height="312" viewBox="0 0 298 312" version="1.1"><path d="M 197.750 44.723 C 199.537 44.945, 202.463 44.945, 204.250 44.723 C 206.037 44.502, 204.575 44.320, 201 44.320 C 197.425 44.320, 195.963 44.502, 197.750 44.723 M 129.949 184.794 C 123.414 191.483, 116.224 196, 112.109 196 C 108.774 196, 108.611 198.291, 111.531 204.149 C 126.299 233.778, 175.148 238.047, 195.657 211.500 C 203.725 201.057, 204.863 196, 199.145 196 C 195.214 196, 185.160 189.162, 179.961 182.953 C 172.655 174.227, 139.064 175.464, 129.949 184.794 M 112 215.694 C 104.519 218.369, 93.833 233.770, 97.934 235.965 C 105.452 239.988, 123.577 221.320, 116.777 216.557 C 114.402 214.893, 114.295 214.874, 112 215.694 M 195.223 216.557 C 190.251 220.039, 203.087 237, 210.693 237 C 217.946 237, 217.612 232.507, 209.750 224.313 C 201.319 215.526, 198.694 214.125, 195.223 216.557 M 152.557 234.223 C 150.723 236.840, 150.329 254.878, 152.035 258.066 C 153.649 261.081, 158.793 260.675, 160.025 257.435 C 164.580 245.453, 158.320 225.994, 152.557 234.223" stroke="none" fill="#d4e02f" fill-rule="evenodd"/><path d="M 101.185 46.073 C 93.769 48.350, 97.527 50.537, 108.178 50.143 C 119.573 49.721, 125.788 51.248, 133.294 56.313 C 136.088 58.199, 136.088 58.199, 131.601 62.996 C 124.979 70.075, 121.271 80.955, 122.557 89.532 C 123.635 96.718, 123.752 96.755, 134.176 93.177 C 148.643 88.211, 147.971 87.218, 147.989 113.574 C 148.005 136.596, 144.359 158.863, 138.443 171.871 C 137.099 174.825, 136 177.412, 136 177.621 C 136 177.829, 145.048 178, 156.107 178 C 174.864 178, 176.166 177.883, 175.494 176.250 C 166.860 155.268, 163.321 133.229, 164.194 105.876 C 164.756 88.283, 164.348 88.706, 176.811 92.790 C 188.762 96.708, 187.696 96.755, 188.947 92.250 C 191.405 83.401, 188.255 71.724, 181.334 64.027 C 176.356 58.490, 176.174 57.766, 179.250 55.769 C 185.734 51.561, 193.288 49.812, 203.484 50.160 C 214.734 50.543, 218.436 48.326, 210.311 46.069 C 199.240 42.995, 185.330 45.840, 173.483 53.603 C 171.313 55.025, 170.592 55.023, 165.643 53.584 C 158.745 51.579, 153.258 51.578, 146.368 53.581 C 140.929 55.163, 140.929 55.163, 136.214 52.171 C 126.364 45.921, 110.612 43.178, 101.185 46.073 M 133.282 96.422 C 129.862 97.621, 126.749 98.917, 126.365 99.301 C 125.981 99.686, 125.033 100, 124.260 100 C 118.251 100, 91.026 117.077, 80.860 127.222 C 53.736 154.292, 64.688 192.750, 100.107 194.800 C 128.274 196.431, 142.392 172.769, 144.576 120.271 C 145.727 92.577, 145.516 92.130, 133.282 96.422 M 168 113.459 C 168 176.923, 190.637 207.540, 225.718 191.522 C 263.859 174.108, 249.263 129.065, 197.500 104.437 C 186.348 99.131, 185.955 98.967, 177.433 96.066 C 167.259 92.601, 168 91.234, 168 113.459" stroke="none" fill="#242023" fill-rule="evenodd"/></svg>